# xmcd
#
# Track frame offsets:
#	150
#	13080
#	30770
#	47315
#	62185
#	76034
#	91238
#	108382
#	125419
#	142928
#	159156
#	173845
#	189992
#	206619
#	224337
#	242772
#
# Disc length: 3431 seconds
#
# Revision: 1
# Processed by: cddbd v1.5.2PL0 Copyright (c) Steve Scherf et al.
# Submitted via: audiograbber 1.83.01
#
DISCID=c10d6510
DTITLE=Murilo Silva E Rafael - Mulher De Sorte
DYEAR=2009
DGENRE=Sertaneja
TTITLE0=Mulher De Sorte
TTITLE1=Volta Que Ainda Te Amo
TTITLE2=Porque Voltou Aqui
TTITLE3=A Galinha Da Vizinha
TTITLE4=Paixão é Fogo
TTITLE5=Acorda Coração
TTITLE6=Bem Feito Pra Mim
TTITLE7=A Carne é Fraca
TTITLE8=Tempestade Passageira
TTITLE9=Mãe, Amor Infinito
TTITLE10=Porto Seguro
TTITLE11=Galera Traiada
TTITLE12=Pra Te Esquecer
TTITLE13=Explosão De Amor
TTITLE14=Além Da Paixão
TTITLE15=Zé Pedreiro
EXTD=
EXTT0=
EXTT1=
EXTT2=
EXTT3=
EXTT4=
EXTT5=
EXTT6=
EXTT7=
EXTT8=
EXTT9=
EXTT10=
EXTT11=
EXTT12=
EXTT13=
EXTT14=
EXTT15=
PLAYORDER=
